# xmcd
# 
# Track frame offsets:
#     150
#     14998
#     35374
#     49911
#     64174
#     78358
#     94358
#     110894
#     128383
#     148183
# 
# Disc length: 2188
# 
# Revision: 0
# Processed by: cddbd v1.5.2PL0 Copyright (c) Steve Scherf et al.
# Submitted via: BonkEnc v1.0.6
# 
DISCID=91088a0a
DTITLE=David Dover - Mississippi Mud
DYEAR=2005
DGENRE=Blues
TTITLE0=You Rascal You
TTITLE1=The Jealous Kind
TTITLE2=Mississippi Mud
TTITLE3=Place In Your Heart
TTITLE4=It Came Out of the Sky
TTITLE5=Slide Man
TTITLE6=Dust My Broom
TTITLE7=Take Care of Me
TTITLE8=Fool For Your Stockings
TTITLE9=Peter Gunn
EXTD=
EXTT0=
EXTT1=
EXTT2=
EXTT3=
EXTT4=
EXTT5=
EXTT6=
EXTT7=
EXTT8=
EXTT9=
PLAYORDER=
